<?xml version="1.0" encoding="UTF-8"?> <svg xmlns="http://www.w3.org/2000/svg" viewBox="0 0 67.00 51.00" data-guides="{&quot;vertical&quot;:[],&quot;horizontal&quot;:[]}"><defs></defs><path fill="#3449B7" stroke="none" fill-opacity="1" stroke-width="1" stroke-opacity="1" color="rgb(51, 51, 51)" id="tSvg593e3b103a" title="Path 1" d="M62.986 43.5491C62.986 43.0125 62.986 42.4758 62.986 41.9392C62.9838 40.4654 62.3973 39.0527 61.3553 38.0105C60.3132 36.9685 58.9005 36.3821 57.4267 36.3799C50.8079 36.3799 44.1891 36.3799 37.5703 36.3799C36.1465 37.823 34.7228 39.2662 33.299 40.7093C31.8746 39.2662 30.4501 37.823 29.0257 36.3799C22.5689 36.3799 16.1122 36.3799 9.6554 36.3799C8.1817 36.3821 6.7689 36.9685 5.7268 38.0105C4.6848 39.0527 4.0983 40.4654 4.0961 41.9392C4.0961 42.4758 4.0961 43.0125 4.0961 43.5491C2.8974 43.5491 1.6987 43.5491 0.5 43.5491C0.5 44.4044 0.5 45.2596 0.5 46.1148C8.6984 46.1148 16.8968 46.1148 25.0951 46.1148C26.057 47.4444 28.6268 50.3383 32.8877 50.4983C33.0102 50.4983 33.1328 50.4983 33.2554 50.4983C34.8763 50.4956 36.4714 50.0935 37.8998 49.3274C39.3282 48.5615 40.5458 47.4552 41.4448 46.1065C49.6348 46.1065 57.8249 46.1065 66.0149 46.1065C66.0149 45.2541 66.0149 44.4016 66.0149 43.5491C65.0053 43.5491 63.9957 43.5491 62.986 43.5491ZM39.9864 43.5491C39.8638 43.7659 39.7413 43.9827 39.6187 44.1994C38.9613 45.3708 37.9949 46.339 36.8247 46.9984C35.6545 47.6579 34.3257 47.9832 32.9832 47.9389C28.9821 47.7893 26.9814 44.349 26.8983 44.1994C26.7751 43.9827 26.6518 43.7659 26.5286 43.5491C19.9063 43.5491 13.2841 43.5491 6.6618 43.5491C6.6618 43.0125 6.6618 42.4758 6.6618 41.9392C6.6629 41.1455 6.9787 40.3847 7.5398 39.8236C8.101 39.2624 8.8618 38.9466 9.6554 38.9455C15.7549 38.9455 21.8543 38.9455 27.9537 38.9455C29.7355 40.7508 31.5173 42.5562 33.299 44.3615C35.0808 42.5562 36.8626 40.7508 38.6443 38.9455C44.9051 38.9455 51.1659 38.9455 57.4267 38.9455C58.2203 38.9466 58.9812 39.2624 59.5423 39.8236C60.1034 40.3847 60.4192 41.1455 60.4203 41.9392C60.4203 42.4758 60.4203 43.0125 60.4203 43.5491C53.609 43.5491 46.7977 43.5491 39.9864 43.5491Z" style=""></path><path fill="#3449B7" stroke="none" fill-opacity="1" stroke-width="1" stroke-opacity="1" color="rgb(51, 51, 51)" id="tSvgfad1b40a01" title="Path 2" d="M44.8853 0.5C37.1315 0.5 29.3777 0.5 21.6239 0.5C21.6239 1.3552 21.6239 2.2104 21.6239 3.0657C29.3777 3.0657 37.1315 3.0657 44.8853 3.0657C44.8853 2.2104 44.8853 1.3552 44.8853 0.5Z" style=""></path><path fill="#3449B7" stroke="none" fill-opacity="1" stroke-width="1" stroke-opacity="1" color="rgb(51, 51, 51)" id="tSvg64666e6582" title="Path 3" d="M31.9758 26.3436C30.9315 26.3436 29.8872 26.3436 28.843 26.3436C28.843 20.6922 28.843 15.0409 28.843 9.3895C27.9877 9.3895 27.1325 9.3895 26.2773 9.3895C26.2773 16.0256 26.2773 22.6617 26.2773 29.2978C28.6027 31.6523 30.928 34.0067 33.2534 36.3612C35.5788 34.0067 37.9042 31.6523 40.2296 29.2978C40.2296 22.6617 40.2296 16.0256 40.2296 9.3895C39.3744 9.3895 38.5191 9.3895 37.6639 9.3895C37.6639 15.0409 37.6639 20.6922 37.6639 26.3436C36.6252 26.3436 35.5864 26.3436 34.5477 26.3436C34.5477 19.8232 34.5477 13.3027 34.5477 6.7822C41.4165 6.7822 48.2853 6.7822 55.1541 6.7822C55.1541 5.927 55.1541 5.0718 55.1541 4.2166C40.5564 4.2166 25.9588 4.2166 11.3612 4.2166C11.3612 5.0718 11.3612 5.927 11.3612 6.7822C18.2327 6.7822 25.1042 6.7822 31.9758 6.7822C31.9758 13.3027 31.9758 19.8232 31.9758 26.3436ZM29.2481 28.6579C31.9183 28.6579 34.5886 28.6579 37.2588 28.6579C35.9237 30.0104 34.5886 31.3628 33.2534 32.7152C31.9183 31.3628 30.5832 30.0104 29.2481 28.6579Z" style=""></path><path fill="#3449B7" stroke="none" fill-opacity="1" stroke-width="1" stroke-opacity="1" color="rgb(51, 51, 51)" id="tSvg182747eaeb8" title="Path 4" d="M52.7523 8.5751C51.2683 11.1463 49.7843 13.7175 48.3003 16.2888C48.6708 16.9307 49.0413 17.5726 49.4118 18.2145C52.3798 18.2145 55.3478 18.2145 58.3158 18.2145C58.6835 17.5726 59.0512 16.9307 59.4188 16.2888C57.9376 13.7175 56.4564 11.1463 54.9752 8.5751C54.2342 8.5751 53.4932 8.5751 52.7523 8.5751ZM51.6346 15.6385C52.3776 14.3512 53.1207 13.0638 53.8637 11.7765C54.6075 13.0659 55.3512 14.3553 56.095 15.6447C54.6082 15.6426 53.1214 15.6406 51.6346 15.6385Z" style=""></path><path fill="#3449B7" stroke="none" fill-opacity="1" stroke-width="1" stroke-opacity="1" color="rgb(51, 51, 51)" id="tSvg177e0a32618" title="Path 5" d="M17.0949 18.2104C17.4654 17.5699 17.8359 16.9293 18.2063 16.2888C16.7223 13.7175 15.2383 11.1463 13.7543 8.5751C13.014 8.5751 12.2737 8.5751 11.5335 8.5751C10.0488 11.1463 8.5641 13.7175 7.0794 16.2888C7.4499 16.9307 7.8204 17.5726 8.1909 18.2145C11.1589 18.2131 14.1269 18.2118 17.0949 18.2104ZM12.6428 11.7827C13.3866 13.07 14.1303 14.3574 14.8741 15.6447C13.3873 15.6447 11.9005 15.6447 10.4137 15.6447C11.1568 14.3574 11.8998 13.07 12.6428 11.7827Z" style=""></path><path fill="#3449B7" stroke="none" fill-opacity="1" stroke-width="1" stroke-opacity="1" color="rgb(51, 51, 51)" id="tSvg436b6f0aa8" title="Path 6" d="M25.228 40.3935C19.8093 40.3935 14.3905 40.3935 8.9718 40.3935C8.9718 40.9635 8.9718 41.5334 8.9718 42.1033C14.3905 42.1033 19.8093 42.1033 25.228 42.1033C25.228 41.5334 25.228 40.9635 25.228 40.3935Z" style=""></path><path fill="#3449B7" stroke="none" fill-opacity="1" stroke-width="1" stroke-opacity="1" color="rgb(51, 51, 51)" id="tSvg135de6f187e" title="Path 7" d="M57.545 40.3935C52.1263 40.3935 46.7076 40.3935 41.2889 40.3935C41.2889 40.9635 41.2889 41.5334 41.2889 42.1033C46.7076 42.1033 52.1263 42.1033 57.545 42.1033C57.545 41.5334 57.545 40.9635 57.545 40.3935Z" style=""></path></svg> 